<?xml version="1.0" encoding="utf-8"?>
<!-- Generator: Adobe Illustrator 18.1.1, SVG Export Plug-In . SVG Version: 6.00 Build 0)  -->
<svg version="1.1" id="Layer_1" xmlns="http://www.w3.org/2000/svg" xmlns:xlink="http://www.w3.org/1999/xlink" x="0px" y="0px"
	 viewBox="-168 315.7 275 162.3" enable-background="new -168 315.7 275 162.3" xml:space="preserve">
<g>
	<g>
		<path fill="#FFFFFF" d="M-149.8,415c-8.1-7.6-10.4-20.1-11.2-30.7c-0.6-8,0.2-16,2.1-23.9c3.4-14.4,11.3-34.3,27.5-37.9
			c3.8-0.8,7.7-0.1,11.3,1.1c7.1,2.5,10.9,8.2,15,14.1c8.7,12.7,11.9,29.1,14.2,44.1c4.7,30.4,1,62.7-7.1,92.2
			c-0.4,1.5,1.9,2.2,2.4,0.6c8.1-29.4,11.4-61,7.4-91.4c-0.9-6.9-2.3-13.8-4-20.5c-1.8-7-3.5-15.6-7.5-21.6
			c-2.1-3.1-4.2-6.3-6.4-9.3c-1.3-1.8-2.8-4.8-4.7-6.1c-3.8-2.6-7.9-4.7-12.4-5.7c-15.9-3.5-27,11.5-32.7,24.1
			c-7,15.5-9.1,32.7-6.2,49.4c1.5,8.3,4.5,17,10.7,22.9C-150.4,417.9-148.7,416.1-149.8,415L-149.8,415z"/>
	</g>
</g>
<g>
	<g>
		<path fill="#FFFFFF" d="M-68.6,424.9c5.3-0.5,7.9-6.6,7-11.3c-0.1-0.4-0.5-0.7-0.9-0.9c-4.3-1.4-6.5,4.8-6.9,7.9
			c-0.7,5.3,1.9,9.9,7.5,10.1c1.6,0.1,1.6-2.4,0-2.4c-5.2-0.2-5.8-5.3-4.7-9.4c0.4-1.3,1.2-3.3,2.6-3.8c0.9-0.3,0.1,0.2,0.1,0.3
			c0.1,0.9-0.2,1.9-0.4,2.8c-0.6,2-2.2,4.2-4.4,4.3C-70.2,422.6-70.2,425.1-68.6,424.9L-68.6,424.9z"/>
	</g>
</g>
<g>
	<g>
		<path fill="#FFFFFF" d="M-49.4,413.8c-2.5,0.3-5.4,3.1-3.4,5.7c1.2,1.6,3.3,1.9,4.8,3.2c3.7,3.1-1.3,5.2-3.7,6.9
			c-1.3,0.9,0,3,1.2,2.1c2-1.4,7.7-4.2,6.5-7.6c-0.7-1.8-2.1-3.1-3.7-4.2c-0.8-0.5-1.6-0.8-2.4-1.2c-2-1,0-2.4,1.3-2.5
			C-47.2,415.9-47.9,413.5-49.4,413.8L-49.4,413.8z"/>
	</g>
</g>
<g>
	<g>
		<path fill="#FFFFFF" d="M-34.3,417.5c2.7-4-3.4-6.2-6.1-3.5c-1.8,1.8-0.9,5.5,0.6,7.2c1.2,1.3,2.9,2.2,3.9,3.6
			c1.6,2.3-4.7,5.9-6,6.6c-1.4,0.7-0.2,2.8,1.2,2.1c3.1-1.6,10.1-6.6,6.4-10.7c-1.8-2-5.2-3.5-4.6-6.7c0.3-1.4,3.5-1.5,2.4,0.1
			C-37.3,417.6-35.2,418.8-34.3,417.5L-34.3,417.5z"/>
	</g>
</g>
<g>
	<g>
		<path fill="#FFFFFF" d="M-25,427.7c4.7-2.4,10.2-6.2,9.4-12.1c-0.1-0.6-0.7-0.8-1.2-0.9c-4.4-0.4-7.8,3.4-8.7,7.4
			c-1.2,5.2,3.1,8.2,7.7,8.7c1.6,0.2,1.5-2.3,0-2.4c-3.7-0.4-6.3-2.6-5.2-6.4c0.7-2.7,3.3-5.1,6.2-4.8c-0.4-0.3-0.8-0.6-1.2-0.9
			c0.6,4.6-4.8,7.6-8.2,9.4C-27.7,426.3-26.4,428.4-25,427.7L-25,427.7z"/>
	</g>
</g>
<g>
	<g>
		<path fill="#FFFFFF" d="M30,384.3c4,6.2,2.9,15.4,2.7,22.5c-0.1,3.9-1.1,7.9-0.8,11.7c0.1,1.4,0.2,2.8,0.1,4.3
			c-0.1,2-0.5,1.2-1.6,0.8c-1.5-0.5-2.1,1.8-0.6,2.4c2,0.7,2.9,1.8,4.2-0.7c1.6-3.1,0.3-8.2,0.7-11.6c0.7-5.8,0.6-11.7,0.5-17.5
			c0-4.5-0.6-9.2-3.1-13.1C31.2,381.7,29.1,383,30,384.3L30,384.3z"/>
	</g>
</g>
<g>
	<g>
		<path fill="#FFFFFF" d="M9.6,372.3c-5.7-8.5-11.3-17.6-11-28.2c0.2-8.1,5.9-14.2,12.6-18c16.1-9.1,37.3-7.7,54.5-3.4
			c10,2.5,20.8,5.7,28,13.5c6,6.5,0.7,14.6-4.3,19.7c-9.2,9.5-21.6,14.9-32.6,21.8c-1.3,0.8-0.1,2.9,1.2,2.1
			c12.9-8.1,28.2-14.4,37.3-27.2c3.4-4.8,5.2-12.1,1.1-17c-7.6-9.1-19-12.3-30-15.3c-18.7-5-42.3-5.7-59.2,5.3
			c-6.1,4-10,10-10.9,17.3c-1.4,11.2,5.3,21.8,11.2,30.6C8.4,374.8,10.5,373.6,9.6,372.3L9.6,372.3z"/>
	</g>
</g>
<g>
	<g>
		<path fill="#FFFFFF" d="M52.5,419.5c0.7,1.6-0.1,3.6-0.2,5.2c-0.1,1.6,2.4,1.6,2.4,0c0.1-2.3,0.8-4.2-0.2-6.5
			C53.9,416.8,51.8,418,52.5,419.5L52.5,419.5z"/>
	</g>
</g>
<g>
	<g>
		<path fill="#FFFFFF" d="M52.5,412.7c-0.3,0-0.7,0-1,0c-1.6,0-1.6,2.4,0,2.4c0.3,0,0.7,0,1,0C54.1,415.2,54.1,412.7,52.5,412.7
			L52.5,412.7z"/>
	</g>
</g>
<g>
	<g>
		<path fill="#FFFFFF" d="M59.5,424.6c0.7,0.8,0.6,2,0.6,3c0,1.6,2.4,1.6,2.4,0c0-1.9,0.3-6.6,2.9-6.7c2.8-0.1,2.8,4.4,3.6,6.3
			c0.6,1.4,2.8,0.2,2.1-1.2c-1.4-3.2-1.4-8.4-6.4-7.5c-3.9,0.7-4.6,5.9-4.6,9.1c0.8,0,1.6,0,2.4,0c0-1.8-0.1-3.4-1.3-4.8
			C60.2,421.7,58.4,423.4,59.5,424.6L59.5,424.6z"/>
	</g>
</g>
<g>
	<g>
		<path fill="#FFFFFF" d="M77.7,384.3c-1.6,6.5-1.9,12.7-2.3,19.3c-0.4,6.5-1,13.3,1.3,19.5c0.2,0.7,1.1,1.2,1.8,0.7
			c3.4-2.5,4.6-1.4,6,2.2c0.6,1.4,2.9,0.8,2.4-0.6c-2.2-5.3-4.5-7.5-9.6-3.7c0.6,0.2,1.2,0.5,1.8,0.7c-2.1-5.5-1.6-11.6-1.3-17.4
			c0.4-6.8,0.7-13.4,2.3-20C80.5,383.4,78.1,382.8,77.7,384.3L77.7,384.3z"/>
	</g>
</g>
<g>
	<g>
		<path fill="#FFFFFF" d="M97.5,418.6c-2,0.1-3.4,0.9-4.8,2.3c-0.3,0.3-0.5,0.8-0.3,1.2c1.9,4.7,9.3,3.5,11-0.6c1-2.3-0.8-4-3-4.2
			c-2.1-0.2-4.6,0.6-6.5,1.5c-1.4,0.7-0.2,2.8,1.2,2.1c0.7-0.4,6-2.1,6.1-0.7c0.1,2.6-5.6,3.6-6.5,1.3c-0.1,0.4-0.2,0.8-0.3,1.2
			c0.9-0.9,1.7-1.5,3-1.6C99,421,99.1,418.5,97.5,418.6L97.5,418.6z"/>
	</g>
</g>
</svg>
