<?xml version="1.0" encoding="utf-8"?>
<!-- Generator: Adobe Illustrator 16.0.0, SVG Export Plug-In . SVG Version: 6.00 Build 0)  -->
<!DOCTYPE svg PUBLIC "-//W3C//DTD SVG 1.1//EN" "http://www.w3.org/Graphics/SVG/1.1/DTD/svg11.dtd">
<svg version="1.1" id="Layer_1" xmlns="http://www.w3.org/2000/svg" xmlns:xlink="http://www.w3.org/1999/xlink" x="0px" y="0px"
	 width="275px" height="162.3px" viewBox="0 0 275 162.3" enable-background="new 0 0 275 162.3" xml:space="preserve">
<g>
	<g>
		<path fill="#444444" d="M18.167,99.344C10.106,91.717,7.771,79.292,6.963,68.68c-0.613-8.048,0.222-16.009,2.064-23.851
			c3.375-14.368,11.303-34.301,27.478-37.916c3.787-0.846,7.708-0.136,11.312,1.111c7.123,2.465,10.877,8.172,14.976,14.147
			c8.692,12.673,11.891,29.077,14.194,44.091c4.67,30.437,1.021,62.721-7.123,92.243c-0.419,1.521,1.937,2.165,2.355,0.648
			c8.12-29.435,11.438-61.004,7.43-91.368c-0.913-6.917-2.313-13.754-4.021-20.516c-1.76-6.973-3.507-15.551-7.53-21.582
			c-2.095-3.14-4.214-6.261-6.396-9.342c-1.263-1.784-2.846-4.837-4.702-6.108c-3.821-2.617-7.863-4.675-12.409-5.663
			c-15.881-3.45-26.998,11.53-32.703,24.148C4.885,44.218,2.743,61.433,5.728,78.143c1.478,8.272,4.475,17.026,10.712,22.928
			C17.583,102.152,19.313,100.428,18.167,99.344L18.167,99.344z"/>
	</g>
</g>
<g>
	<g>
		<path fill="#444444" d="M99.377,109.245c5.312-0.464,7.928-6.568,7.04-11.317c-0.079-0.421-0.47-0.73-0.853-0.854
			c-4.302-1.38-6.451,4.823-6.876,7.938c-0.721,5.274,1.884,9.908,7.528,10.096c1.576,0.052,1.571-2.391,0-2.443
			c-5.233-0.174-5.847-5.314-4.661-9.428c0.375-1.303,1.182-3.287,2.559-3.844c0.853-0.344,0.082,0.182,0.091,0.308
			c0.07,0.937-0.187,1.863-0.44,2.753c-0.573,2.003-2.172,4.155-4.388,4.349C97.821,106.938,97.808,109.382,99.377,109.245
			L99.377,109.245z"/>
	</g>
</g>
<g>
	<g>
		<path fill="#444444" d="M118.594,98.052c-2.501,0.346-5.416,3.146-3.394,5.721c1.229,1.564,3.331,1.892,4.809,3.16
			c3.662,3.145-1.297,5.158-3.661,6.876c-1.261,0.916-0.044,3.037,1.232,2.109c1.995-1.449,7.663-4.183,6.47-7.562
			c-0.651-1.843-2.064-3.114-3.669-4.178c-0.75-0.498-1.635-0.827-2.433-1.24c-1.995-1.031-0.005-2.351,1.296-2.53
			C120.798,100.192,120.134,97.839,118.594,98.052L118.594,98.052z"/>
	</g>
</g>
<g>
	<g>
		<path fill="#444444" d="M133.652,101.801c2.652-4.027-3.379-6.183-6.062-3.479c-1.822,1.836-0.917,5.502,0.633,7.185
			c1.19,1.292,2.873,2.184,3.886,3.625c1.612,2.291-4.663,5.932-5.991,6.633c-1.394,0.735-0.159,2.844,1.232,2.109
			c3.062-1.615,10.099-6.557,6.369-10.66c-1.783-1.962-5.236-3.492-4.61-6.701c0.268-1.373,3.469-1.516,2.433,0.057
			C130.674,101.888,132.79,103.11,133.652,101.801L133.652,101.801z"/>
	</g>
</g>
<g>
	<g>
		<path fill="#444444" d="M142.983,112.009c4.67-2.392,10.161-6.201,9.355-12.126c-0.077-0.566-0.688-0.848-1.178-0.897
			c-4.362-0.44-7.839,3.449-8.719,7.414c-1.162,5.235,3.065,8.203,7.742,8.708c1.565,0.169,1.549-2.275,0-2.443
			c-3.694-0.398-6.255-2.571-5.182-6.436c0.748-2.695,3.257-5.093,6.158-4.8c-0.393-0.299-0.785-0.598-1.178-0.897
			c0.618,4.552-4.824,7.623-8.232,9.368C140.349,110.617,141.585,112.726,142.983,112.009L142.983,112.009z"/>
	</g>
</g>
<g>
	<g>
		<path fill="#444444" d="M197.983,68.58c4.038,6.209,2.854,15.392,2.671,22.457c-0.101,3.895-1.065,7.855-0.799,11.719
			c0.099,1.429,0.17,2.836,0.125,4.269c-0.06,1.951-0.473,1.192-1.596,0.8c-1.49-0.521-2.126,1.839-0.648,2.355
			c1.958,0.686,2.915,1.752,4.185-0.687c1.59-3.054,0.33-8.218,0.733-11.591c0.689-5.763,0.582-11.659,0.521-17.454
			c-0.048-4.537-0.562-9.224-3.083-13.101C199.237,66.032,197.122,67.255,197.983,68.58L197.983,68.58z"/>
	</g>
</g>
<g>
	<g>
		<path fill="#444444" d="M177.619,56.6c-5.687-8.545-11.286-17.566-10.974-28.206c0.239-8.136,5.881-14.179,12.593-17.987
			c16.091-9.129,37.323-7.663,54.509-3.381c10.022,2.497,20.793,5.651,27.968,13.451c5.961,6.48,0.682,14.596-4.27,19.708
			c-9.196,9.493-21.608,14.918-32.644,21.84c-1.331,0.834-0.106,2.949,1.232,2.109c12.896-8.089,28.166-14.443,37.313-27.189
			c3.445-4.801,5.191-12.071,1.077-17.014c-7.577-9.105-18.979-12.288-30.028-15.26c-18.711-5.034-42.285-5.703-59.181,5.326
			c-6.123,3.997-9.994,10.026-10.924,17.259c-1.437,11.173,5.349,21.758,11.218,30.578C176.378,59.137,178.494,57.915,177.619,56.6
			L177.619,56.6z"/>
	</g>
</g>
<g>
	<g>
		<path fill="#444444" d="M220.455,103.753c0.7,1.625-0.11,3.561-0.167,5.248c-0.052,1.576,2.391,1.571,2.443,0
			c0.076-2.315,0.8-4.237-0.167-6.48C221.942,101.077,219.839,102.323,220.455,103.753L220.455,103.753z"/>
	</g>
</g>
<g>
	<g>
		<path fill="#444444" d="M220.533,97.03c-0.326,0-0.651,0-0.978,0c-1.575,0-1.575,2.443,0,2.443c0.326,0,0.651,0,0.978,0
			C222.108,99.474,222.108,97.03,220.533,97.03L220.533,97.03z"/>
	</g>
</g>
<g>
	<g>
		<path fill="#444444" d="M227.487,108.887c0.749,0.845,0.615,1.989,0.617,3.045c0.004,1.576,2.425,1.574,2.443,0
			c0.021-1.865,0.278-6.578,2.87-6.704c2.826-0.138,2.79,4.436,3.647,6.343c0.646,1.435,2.75,0.191,2.109-1.232
			c-1.432-3.183-1.412-8.401-6.445-7.492c-3.852,0.695-4.587,5.902-4.625,9.086c0.814,0,1.629,0,2.443,0
			c-0.004-1.821-0.081-3.361-1.334-4.771C228.167,105.979,226.445,107.714,227.487,108.887L227.487,108.887z"/>
	</g>
</g>
<g>
	<g>
		<path fill="#444444" d="M245.736,68.616c-1.562,6.455-1.866,12.679-2.28,19.264c-0.404,6.453-1.032,13.316,1.303,19.491
			c0.25,0.662,1.108,1.241,1.794,0.73c3.416-2.546,4.553-1.407,6.022,2.201c0.586,1.439,2.95,0.811,2.355-0.648
			c-2.178-5.348-4.464-7.497-9.61-3.662c0.598,0.243,1.196,0.486,1.794,0.73c-2.097-5.545-1.646-11.638-1.303-17.446
			c0.401-6.796,0.669-13.351,2.28-20.011C248.462,67.734,246.106,67.085,245.736,68.616L245.736,68.616z"/>
	</g>
</g>
<g>
	<g>
		<path fill="#444444" d="M265.478,102.893c-2.003,0.103-3.376,0.927-4.771,2.313c-0.282,0.28-0.472,0.798-0.314,1.188
			c1.879,4.666,9.328,3.526,11.047-0.643c0.969-2.347-0.771-3.979-2.959-4.204c-2.148-0.221-4.636,0.594-6.55,1.513
			c-1.42,0.682-0.181,2.787,1.232,2.109c0.749-0.359,6.024-2.146,6.072-0.707c0.087,2.593-5.568,3.564-6.487,1.283
			c-0.104,0.396-0.209,0.792-0.314,1.188c0.91-0.904,1.71-1.529,3.044-1.597C267.045,105.256,267.053,102.812,265.478,102.893
			L265.478,102.893z"/>
	</g>
</g>
</svg>
